<?xml version="1.0" encoding="UTF-8" standalone="no"?>
<svg
   xmlns:dc="http://purl.org/dc/elements/1.1/"
   xmlns:cc="http://creativecommons.org/ns#"
   xmlns:rdf="http://www.w3.org/1999/02/22-rdf-syntax-ns#"
   xmlns:svg="http://www.w3.org/2000/svg"
   xmlns="http://www.w3.org/2000/svg"
   xmlns:sodipodi="http://sodipodi.sourceforge.net/DTD/sodipodi-0.dtd"
   xmlns:inkscape="http://www.inkscape.org/namespaces/inkscape"
   viewBox="0 0 432 432"
   version="1.1"
   id="svg25"
   sodipodi:docname="handel_logo.svg"
   inkscape:version="1.0.2 (e86c870879, 2021-01-15, custom)">
  <metadata
     id="metadata29">
    <rdf:RDF>
      <cc:Work
         rdf:about="">
        <dc:format>image/svg+xml</dc:format>
        <dc:type
           rdf:resource="http://purl.org/dc/dcmitype/StillImage" />
      </cc:Work>
    </rdf:RDF>
  </metadata>
  <sodipodi:namedview
     pagecolor="#ffffff"
     bordercolor="#666666"
     borderopacity="1"
     objecttolerance="10"
     gridtolerance="10"
     guidetolerance="10"
     inkscape:pageopacity="0"
     inkscape:pageshadow="2"
     inkscape:window-width="2310"
     inkscape:window-height="1308"
     id="namedview27"
     showgrid="false"
     inkscape:zoom="2.3333333"
     inkscape:cx="293.08426"
     inkscape:cy="216"
     inkscape:window-x="587"
     inkscape:window-y="77"
     inkscape:window-maximized="0"
     inkscape:current-layer="svg25" />
  <defs
     id="defs4">
    <style
       id="style2">.cls-1{fill:#d5c3b6;}.cls-2{fill:#3a2f2d;}.cls-3{fill:#6f8299;}.cls-4{fill:#6e8199;}.cls-5{fill:#eddcd1;}.cls-6{fill:#c7ac8e;}.cls-7{fill:#f7eee9;}</style>
  </defs>
  <g
     id="Layer_3"
     data-name="Layer 3"
     inkscape:export-xdpi="300.207"
     inkscape:export-ydpi="300.207">
    <polygon
       class="cls-1"
       points="291.8 84.71 140.2 84.71 64.39 216 140.2 347.29 291.8 347.29 367.61 216 291.8 84.71"
       id="polygon6" />
    <path
       class="cls-2"
       d="M294.13,351.33H137.87L59.74,216,137.87,80.67H294.13L372.26,216Zm-151.6-8.07H289.47L363,216,289.47,88.74H142.53L69.05,216Z"
       id="path8" />
    <ellipse
       class="cls-3"
       cx="212.95"
       cy="296.77"
       rx="74.95"
       ry="15.83"
       id="ellipse10" />
    <path
       class="cls-4"
       d="M262.94,192.88h6.71a7.44,7.44,0,1,0,0-4.51h-6.71a50,50,0,0,0-3-15l6.11-2.53a7.44,7.44,0,1,0-1.59-4.21l-6.26,2.59a49.92,49.92,0,0,0-8.5-12.54l4.68-4.68a7.43,7.43,0,1,0-3.06-3.31l-4.82,4.82a49.85,49.85,0,0,0-12.34-8.22l2.56-6.17a7.44,7.44,0,1,0-4.16-1.73L230,143.56a50.14,50.14,0,0,0-14.79-2.92v-6.71a7.45,7.45,0,1,0-4.51,0v6.71a50.07,50.07,0,0,0-14.79,2.92l-2.56-6.18a7.44,7.44,0,1,0-4.16,1.73l2.55,6.17a50,50,0,0,0-12.33,8.22l-4.82-4.82a7.44,7.44,0,1,0-3.06,3.31l4.68,4.68a50,50,0,0,0-8.51,12.54l-6.25-2.59a7.45,7.45,0,1,0-1.6,4.21l6.11,2.53a49.94,49.94,0,0,0-3,15h-6.71a7.45,7.45,0,1,0,0,4.51H163a49.67,49.67,0,0,0,2.94,14.88l-6.15,2.54a7.44,7.44,0,1,0,1.68,4.19l6.2-2.57a50.28,50.28,0,0,0,8.29,12.37l-4.78,4.78a7.44,7.44,0,1,0,3.24,3.13l4.72-4.72A50.17,50.17,0,0,0,191.72,236l-2.56,6.18a7.42,7.42,0,1,0,4.17,1.71l2.55-6.17a50,50,0,0,0,14.82,2.93v6.71a7.44,7.44,0,1,0,4.51,0v-6.71A49.9,49.9,0,0,0,230,237.69l2.56,6.17a7.45,7.45,0,1,0,4.17-1.71L234.19,236a50.17,50.17,0,0,0,12.61-8.49l4.71,4.72a7.45,7.45,0,1,0,3.25-3.13L250,224.29a50,50,0,0,0,8.28-12.37l6.21,2.57a7.43,7.43,0,1,0,1.68-4.19L260,207.76A50,50,0,0,0,262.94,192.88Z"
       id="path12" />
    <path
       class="cls-5"
       d="M300.13,242.17C298,237,292.76,231,280.05,229.75c0-.37,0-.74,0-1.1a5.67,5.67,0,0,0-5.66-5.43H150.63a4.77,4.77,0,0,0-4.76,4.49q-.19,3.28-.08,6.63a67.17,67.17,0,0,0,117,42.53,23.51,23.51,0,0,0,5.54.6,40.85,40.85,0,0,0,8.24-.92c7.33-1.59,13.84-4.8,17.86-8.82C300.07,262.06,303.76,251,300.13,242.17ZM287.47,260.8c-4.14,4.14-12.09,6.42-17.7,6.83a66.76,66.76,0,0,0,9.87-28.07c4.88.56,9.72,2.22,11.44,6.36C293.13,250.86,290.36,257.92,287.47,260.8Z"
       id="path14" />
    <path
       class="cls-6"
       d="M274.35,223.22a5.67,5.67,0,0,1,5.66,5.43c0,.36,0,.73,0,1.1C292.76,231,298,237,300.13,242.17c3.63,8.78-.06,19.89-5.73,25.56-4,4-10.53,7.23-17.86,8.81a40,40,0,0,1-8.24.93,23.51,23.51,0,0,1-5.54-.6A67,67,0,0,1,213.32,299h-.4a67.35,67.35,0,0,1-67.13-64.68q-.12-3.34.08-6.63a4.77,4.77,0,0,1,4.76-4.49H274.35m-4.58,44.41c5.61-.41,13.56-2.69,17.7-6.83,2.89-2.88,5.66-9.94,3.61-14.88-1.72-4.14-6.56-5.8-11.44-6.36a66.76,66.76,0,0,1-9.87,28.07m4.58-47.1H150.63a7.48,7.48,0,0,0-7.45,7c-.13,2.28-.16,4.6-.08,6.89a70,70,0,0,0,69.82,67.27h.42a69.66,69.66,0,0,0,50.37-21.91,27.74,27.74,0,0,0,4.59.36,42.28,42.28,0,0,0,8.81-1c7.82-1.68,14.81-5.16,19.19-9.54a28.78,28.78,0,0,0,7.06-12.85,24.9,24.9,0,0,0-.74-15.64c-2.22-5.34-7.49-11.91-20.06-13.79a8.35,8.35,0,0,0-8.21-6.82Zm.56,43.55a68.71,68.71,0,0,0,7-21.42c2.83.63,5.65,1.87,6.66,4.29,1.57,3.79-.79,9.7-3,11.95s-6.55,4.17-10.66,5.18Z"
       id="path16" />
    <path
       class="cls-7"
       d="M218.22,152.6c.69,1.27,1.32,2.56,1.9,3.89s1.1,2.66,1.6,4,.91,2.75,1.29,4.16c.18.71.35,1.42.5,2.14.08.36.15.73.22,1.09l.1.54.08.55c.06.37.12.74.16,1.11s.09.74.12,1.12.06.75.07,1.13,0,.76,0,1.15a20,20,0,0,1-.46,4.69,13.36,13.36,0,0,1-2,4.66,11.16,11.16,0,0,1-3.91,3.57,14.38,14.38,0,0,1-2.34,1,21.69,21.69,0,0,1-2.29.61c-1.49.31-2.88.51-4.11.78a11.3,11.3,0,0,0-1.69.5,6.27,6.27,0,0,0-1.31.72,4.65,4.65,0,0,0-1,1.07,5.12,5.12,0,0,0-.68,1.41,9,9,0,0,0-.34,1.7,14.82,14.82,0,0,0,0,1.89,23.31,23.31,0,0,0,.6,4c.15.67.33,1.34.52,2s.4,1.35.61,2c.43,1.35.91,2.7,1.37,4.06a32.57,32.57,0,0,1-2.56-3.49,31.76,31.76,0,0,1-2.14-3.84c-.31-.67-.59-1.36-.85-2.07a19.44,19.44,0,0,1-.63-2.21,13,13,0,0,1-.33-2.36,10.26,10.26,0,0,1,.15-2.52,8.57,8.57,0,0,1,.86-2.54,8.27,8.27,0,0,1,1.69-2.23,9.11,9.11,0,0,1,2.27-1.54,14,14,0,0,1,2.34-.88c1.52-.44,2.94-.68,4.22-1a14.09,14.09,0,0,0,3.38-1.2,7,7,0,0,0,1.29-.92,6.65,6.65,0,0,0,1.07-1.17,10.41,10.41,0,0,0,1.44-3.1,20,20,0,0,0,.65-3.74c0-.33.05-.65.06-1l0-.49v-.51c0-.33,0-.67,0-1s0-.68,0-1,0-.68,0-1,0-.69-.06-1c0-.69-.11-1.37-.16-2.07-.14-1.38-.3-2.77-.49-4.16-.1-.7-.19-1.4-.3-2.1l-.15-1.05-.16-1.06C218.65,155.44,218.41,154,218.22,152.6Z"
       id="path18" />
    <path
       class="cls-7"
       d="M212.17,214.4a36.14,36.14,0,0,1-1.35-6.34c-.06-.54-.13-1.08-.17-1.62s-.06-1.09-.09-1.64,0-1.1,0-1.65a7.68,7.68,0,0,1,0-.83l0-.84a22.1,22.1,0,0,1,.51-3.38c.06-.29.15-.57.23-.86s.17-.57.27-.85a13.31,13.31,0,0,1,.73-1.71,10.32,10.32,0,0,1,2.39-3.17c.27-.22.55-.44.84-.65s.6-.38.91-.55a9.23,9.23,0,0,1,2-.75,11.72,11.72,0,0,1,2-.29c.64,0,1.25,0,1.82,0,1.15.07,2.19.2,3.08.24a9.6,9.6,0,0,0,1.21,0,3.89,3.89,0,0,0,.93-.2,3.1,3.1,0,0,0,1.48-1.2,7.1,7.1,0,0,0,.95-2.33,17.52,17.52,0,0,0,.39-2.89c0-.51,0-1,.06-1.54s0-1,0-1.56c0-1.06-.06-2.12-.07-3.21a24.59,24.59,0,0,1,1.36,2.95,21,21,0,0,1,1,3.16c.12.55.22,1.11.29,1.68a12.52,12.52,0,0,1,.09,1.74,9.29,9.29,0,0,1-.74,3.73,6.73,6.73,0,0,1-2.91,3.21,7.39,7.39,0,0,1-2.07.75,11.65,11.65,0,0,1-1.95.22c-1.22,0-2.28-.06-3.24-.07a9.44,9.44,0,0,0-2.49.21,4.29,4.29,0,0,0-1,.35l-.45.25-.42.31a6.44,6.44,0,0,0-1.49,1.77,12.79,12.79,0,0,0-.63,1.16c-.1.2-.17.42-.27.63s-.19.42-.26.65a28.41,28.41,0,0,0-.84,2.79l-.18.73c-.06.24-.12.48-.17.73-.1.5-.2,1-.31,1.5-.16,1-.36,2-.5,3.06s-.3,2.08-.47,3.13c-.09.52-.15,1.05-.23,1.58S212.27,213.86,212.17,214.4Z"
       id="path20" />
    <path
       class="cls-7"
       d="M155.11,227.21h9.21a2.07,2.07,0,0,1,1.92,2.88c-5.21,12-1.45,45.56,15.69,54.94,0,0-32.57-16.94-28.89-55.94A2.08,2.08,0,0,1,155.11,227.21Z"
       id="path22" />
  </g>
  <text
     xml:space="preserve"
     style="font-style:normal;font-weight:normal;font-size:40px;line-height:1.25;font-family:sans-serif;fill:#000000;fill-opacity:1;stroke:none"
     x="147.57143"
     y="340.85715"
     id="text856"
     inkscape:export-xdpi="300.207"
     inkscape:export-ydpi="300.207"><tspan
       sodipodi:role="line"
       id="tspan854"
       x="147.57143"
       y="340.85715"
       style="font-style:normal;font-variant:normal;font-weight:normal;font-stretch:normal;font-size:12px;font-family:Arial;-inkscape-font-specification:Arial">www.andreashandel.com</tspan></text>
</svg>
